# xmcd
#
# Track frame offsets: 
#        150
#        17915
#        42461
#        62706
#        81189
#        99093
#        116720
#        136962
#        154723
#
# Disc length: 2313 seconds
#
# Revision: 0
# Processed by: cddbd v1.5.2PL0 Copyright (c) Steve Scherf et al.
# Submitted via: ExactAudioCopy v0.99pb4
#
DISCID=6f090709
DTITLE=Twilight - Pains Of Love
DYEAR=1986
DGENRE=R&B
TTITLE0=Dance With Me
TTITLE1=Find Someone Else
TTITLE2=I Wonder Who
TTITLE3=You Look So Good
TTITLE4=You're In Love
TTITLE5=Never Want To See You Low
TTITLE6=Give All My Love
TTITLE7=Love From You
TTITLE8=Pains Of Love
EXTD=
EXTT0=
EXTT1=
EXTT2=
EXTT3=
EXTT4=
EXTT5=
EXTT6=
EXTT7=
EXTT8=
PLAYORDER=
